<svg id="icon" xmlns="http://www.w3.org/2000/svg" xmlns:xlink="http://www.w3.org/1999/xlink" width="500" height="500" viewBox="0 0 500 500">
  <metadata><?xpacket begin="﻿" id="W5M0MpCehiHzreSzNTczkc9d"?>
<x:xmpmeta xmlns:x="adobe:ns:meta/" x:xmptk="Adobe XMP Core 5.6-c138 79.159824, 2016/09/14-01:09:01        ">
   <rdf:RDF xmlns:rdf="http://www.w3.org/1999/02/22-rdf-syntax-ns#">
      <rdf:Description rdf:about=""/>
   </rdf:RDF>
</x:xmpmeta>
                                                                                                    
                                                                                                    
                                                                                                    
                                                                                                    
                                                                                                    
                                                                                                    
                                                                                                    
                                                                                                    
                                                                                                    
                                                                                                    
                                                                                                    
                                                                                                    
                                                                                                    
                                                                                                    
                                                                                                    
                                                                                                    
                                                                                                    
                                                                                                    
                                                                                                    
                                                                                                    
                           
<?xpacket end="w"?></metadata>
<defs>
    <style>
      .cls-1 {
        fill: #002121;
      }

      .cls-2 {
        font-size: 48px;
        filter: url(#filter);
        text-anchor: middle;
        font-family: Roboto;
        font-weight: 500;
      }

      .cls-2, .cls-3 {
        fill: #fff;
      }

      .cls-3 {
        fill-rule: evenodd;
        filter: url(#filter-2);
      }
    </style>
    <filter id="filter" x="52" y="341" width="418" height="144" filterUnits="userSpaceOnUse">
      <feOffset result="offset" dx="10" dy="17.321" in="SourceAlpha"/>
      <feGaussianBlur result="blur" stdDeviation="4.472"/>
      <feFlood result="flood" flood-opacity="0.2"/>
      <feComposite result="composite" operator="in" in2="blur"/>
      <feBlend result="blend" in="SourceGraphic"/>
    </filter>
    <filter id="filter-2" x="151" y="80" width="212" height="246" filterUnits="userSpaceOnUse">
      <feOffset result="offset" dx="10" dy="17.321" in="SourceAlpha"/>
      <feGaussianBlur result="blur" stdDeviation="4.472"/>
      <feFlood result="flood" flood-opacity="0.2"/>
      <feComposite result="composite" operator="in" in2="blur"/>
      <feBlend result="blend" in="SourceGraphic"/>
    </filter>
  </defs>
  <rect class="cls-1" y="-3" width="500" height="503"/>
  <text id="On-Scroll_Product_Loading" data-name="On-Scroll Product Loading" class="cls-2" x="250.022" y="379.522">On-Scroll Product<tspan x="250.022" dy="57.6">Loading</tspan></text>
  <path class="cls-3" d="M323.37,181.1l-38.8-25.791a26.219,26.219,0,0,0-28.567,0l-0.853.569V99.25a17.3,17.3,0,0,0-34.6,0V214.668a4.326,4.326,0,0,1-6.26,3.858l-27.774-13.847A18.33,18.33,0,0,0,160,221.019v3.294a4.309,4.309,0,0,0,1.377,3.154L211.3,273.919A56.087,56.087,0,0,0,249.661,289h40.09A43.238,43.238,0,0,0,333,245.875V199.044A21.5,21.5,0,0,0,323.37,181.1Zm0.98,64.772a34.586,34.586,0,0,1-34.6,34.5h-40.09A47.477,47.477,0,0,1,217.2,267.614l-48.545-45.175v-1.42a9.675,9.675,0,0,1,14-8.625l27.774,13.847A12.969,12.969,0,0,0,229.2,214.668V99.25a8.65,8.65,0,0,1,17.3,0v64.688a4.324,4.324,0,0,0,6.724,3.588l7.577-5.037a17.411,17.411,0,0,1,18.972,0l38.8,25.791a12.909,12.909,0,0,1,5.778,10.764v46.831h0ZM178.571,184.237a4.334,4.334,0,0,0,6.116,0l17.3-17.251a4.318,4.318,0,0,0-6.115-6.1l-9.917,9.889V103.562a4.325,4.325,0,0,0-8.65,0v67.215l-9.916-9.889a4.318,4.318,0,0,0-6.116,6.1Z"/>
</svg>
