<svg xmlns="http://www.w3.org/2000/svg" viewBox="0 0 500 500"><defs><style>.cls-1{fill:#002121;}.cls-2{fill:#9c5c8f;}.cls-2,.cls-3{fill-rule:evenodd;}.cls-3{fill:#fff;}</style></defs><title>Asset 1</title><g id="Layer_2" data-name="Layer 2"><g id="Layer_1-2" data-name="Layer 1"><rect class="cls-1" width="500" height="500"/><path class="cls-2" d="M64,150.28a18.65,18.65,0,0,1,16.86-11.33q81.48,0,163,0a18.69,18.69,0,0,1,19,19.06c0,20.82,0,41.64,0,62.46,0,9.41-8.26,17.81-17.66,18.06-19.81.09-39.63,0-59.44,0,2.66,6.56,5.36,13.11,8,19.67-11.8-6.5-23.48-13.23-35.35-19.59-26.06-.23-52.14,0-78.21-.13-9.39-.26-17.58-8.65-17.63-18-.08-20.38,0-40.77,0-61.16a20.93,20.93,0,0,1,1.47-9Z"/><path class="cls-3" d="M143.67,151.8c3-3.2,8.72-2.16,10.94,1.46a6.83,6.83,0,0,1,.34,6.46c-4.19,8.23-5.93,17.41-7.54,26.42-1.91,11.76-3.49,23.66-2.87,35.59.17,3-1.3,6.74-4.57,7.44-3.09.69-5.9-1.33-7.84-3.52-8.87-9.54-13.89-21.9-17.51-34.23-3.66,7.22-7.33,14.44-10.88,21.72-2.48,4.92-5.11,9.94-9.07,13.85-1.68,1.66-4.51,3.17-6.67,1.46-3.25-2.85-4.05-7.38-5.43-11.28-5.24-18.06-8.21-36.68-11.25-55.21-.7-3.09.6-6.79,3.68-8,2.49-.93,5.68-1.06,7.8.77,1.48,1.32,1.89,3.36,2.16,5.23,2.14,14.34,4.68,28.64,8.14,42.73q8.9-16.87,17.75-33.78a11,11,0,0,1,3.55-4.33,5.8,5.8,0,0,1,7.18.65c1.52,1.59,2,3.8,2.44,5.89a151.7,151.7,0,0,0,7.64,27.35c1.5-13.3,3.33-26.76,8.19-39.32,1.1-2.53,2.06-5.2,3.84-7.35ZM177,158.92c6.39-.78,13.28,1.34,17.63,6.2a27,27,0,0,1,6.21,14.5A44.53,44.53,0,0,1,196,206c-2.45,4.56-5.66,8.93-10.18,11.61-6.62,4-15.51,3.53-21.91-.72-5.11-3.5-8-9.47-9.15-15.42-2.35-13.46,1.67-28.46,11.86-37.85a19.74,19.74,0,0,1,10.41-4.7Zm1.33,13.84c-3.07,1-5,3.83-6.66,6.45-4.13,6.66-5.33,15.43-2,22.68.87,1.91,2.28,3.91,4.49,4.31s4.54-1,6.26-2.42c3.78-3.24,5.66-8.11,6.57-12.89,1-5.44.5-11.47-2.69-16.12a5.23,5.23,0,0,0-6-2Zm49.91-13.83c6.24-.78,13,1.15,17.39,5.81a27,27,0,0,1,6.62,15.53,44.5,44.5,0,0,1-4.82,25.47c-2.48,4.68-5.76,9.19-10.41,11.92-6.36,3.81-14.76,3.46-21.06-.3-4.26-2.56-7.09-6.94-8.72-11.54a42.26,42.26,0,0,1,9.6-41.24,20.12,20.12,0,0,1,11.4-5.66Zm1.35,13.85c-3.35,1.2-5.36,4.4-7.1,7.3-3.77,6.65-4.7,15.21-1.29,22.2.92,1.93,2.55,3.88,4.86,4,2.51.09,4.67-1.5,6.41-3.14,3.79-3.74,5.53-9.08,6.13-14.27a20.38,20.38,0,0,0-3-14.15,5.22,5.22,0,0,0-6-1.93Z"/><path class="cls-3" d="M83.76,269.12a37.74,37.74,0,0,1,16.6.22c0,4.44,0,8.87,0,13.31-4.45-1.07-9.42-2.08-13.74,0-5.16,2.52-8,8.34-8,13.92-.29,5.57,1.56,11.76,6.49,14.89,4.53,3,10.31,2.36,15.28.93,0,4.44,0,8.87,0,13.31A32.41,32.41,0,0,1,80.19,325,27.11,27.11,0,0,1,64,307.58,36.26,36.26,0,0,1,63.45,289a27.4,27.4,0,0,1,20.31-19.92Zm40-.66c6.7-.75,14,.28,19.41,4.58,5.22,4.05,7.83,10.59,8.74,17a48.46,48.46,0,0,1-1.45,21c-1.84,5.74-5.69,11-11.24,13.65S127,327.52,121,326.17a20.39,20.39,0,0,1-13.21-9.91c-3.82-6.71-4.51-14.67-4.22-22.24.32-6.53,2-13.34,6.35-18.37a21.22,21.22,0,0,1,13.82-7.18Zm2.06,12.72c-2.88.73-4.51,3.57-5.23,6.24-1.43,5.29-1.18,10.86-.82,16.27.35,2.92.66,6.16,2.75,8.44,2.77,3.15,8.33,2.72,10.87-.5,1.68-2.06,2.12-4.78,2.5-7.33a51.22,51.22,0,0,0,0-13.75c-.49-2.73-1.24-5.6-3.25-7.64a7.1,7.1,0,0,0-6.8-1.73Zm262.86-11.83a37.89,37.89,0,0,1,17.45-.05c.13,4.45,0,8.9.06,13.35-4.36-1-9.17-2-13.43-.14-4.9,2.23-7.87,7.49-8.25,12.74-.6,5.89,1,12.66,6.21,16.1,4.55,3.13,10.44,2.52,15.47,1.06-.06,4.47.13,8.94-.11,13.4a33,33,0,0,1-21.31-1.32A27.17,27.17,0,0,1,369.67,307a36.25,36.25,0,0,1-.31-18.23,27.39,27.39,0,0,1,19.34-19.38Zm-227.93.44q9.5,0,19,0c2.29,10.28,4.47,20.59,6.38,30.94,1.81-10.4,4.25-20.68,6.7-30.94q9.75,0,19.5,0,3.79,27.9,7.54,55.81H205c-1.38-12.74-2.6-25.49-4.06-38.23-3,12.76-6.2,25.48-9.27,38.23-3.39,0-6.79,0-10.18,0-3.25-12.76-6.45-25.54-9.73-38.29q-1.92,19.15-3.84,38.3c-4.75,0-9.51,0-14.26,0q3.55-27.9,7.12-55.8Zm68.21,0c6.34,0,12.68,0,19,0,2.29,10.26,4.45,20.55,6.37,30.9,1.84-10.38,4.25-20.65,6.71-30.9h19.42q3.78,27.9,7.53,55.81c-5,0-9.94,0-14.9,0-1.38-12.75-2.67-25.49-4-38.24-3.1,12.74-6.14,25.49-9.24,38.24H249.71q-4.88-19.16-9.73-38.33c-1.3,12.77-2.56,25.55-3.85,38.33H221.86q3.56-27.9,7.12-55.81Zm63.3.18c10.18-.23,20.37,0,30.55-.1,0,4,0,7.92,0,11.88-5.14.06-10.28,0-15.42,0q0,5.11,0,10.21c4.45,0,8.9,0,13.35,0q0,5.79,0,11.56c-4.45,0-8.9,0-13.35,0q0,5.11,0,10.22c5.16,0,10.32,0,15.48,0q0,5.94,0,11.89H292.38c-.07-18.57.11-37.14-.09-55.71Zm35-.18c6.37,0,12.75-.05,19.12,0,6,.19,12.37,1.69,16.85,5.94a15.12,15.12,0,0,1,3.88,15.15,15.58,15.58,0,0,1-8.42,9.58c4,8.38,8,16.73,12,25.1h-15.9c-4.16-8.54-8.19-17.16-12.4-25.67-.11,8.56,0,17.11,0,25.67H327.25q0-27.9,0-55.81Zm15,10.73q0,6.65,0,13.32c2.73-.19,5.69-.3,8-1.94,2.67-1.93,2.38-6,.7-8.53-2.08-2.55-5.7-2.6-8.71-2.85Zm68.18-10.72c10.16,0,20.33,0,30.49,0,0,4,0,7.94,0,11.91H425.46q0,5.1,0,10.2c4.45,0,8.9,0,13.35,0q0,5.79,0,11.58H425.47c0,3.4,0,6.81,0,10.22,5.18,0,10.36,0,15.54,0q0,5.94,0,11.89H410.45q0-27.89,0-55.79Z"/></g></g></svg>