<svg id="icon" xmlns="http://www.w3.org/2000/svg" xmlns:xlink="http://www.w3.org/1999/xlink" width="500" height="500" viewBox="0 0 500 500">
  <metadata><?xpacket begin="﻿" id="W5M0MpCehiHzreSzNTczkc9d"?>
<x:xmpmeta xmlns:x="adobe:ns:meta/" x:xmptk="Adobe XMP Core 5.6-c138 79.159824, 2016/09/14-01:09:01        ">
   <rdf:RDF xmlns:rdf="http://www.w3.org/1999/02/22-rdf-syntax-ns#">
      <rdf:Description rdf:about=""/>
   </rdf:RDF>
</x:xmpmeta>
                                                                                                    
                                                                                                    
                                                                                                    
                                                                                                    
                                                                                                    
                                                                                                    
                                                                                                    
                                                                                                    
                                                                                                    
                                                                                                    
                                                                                                    
                                                                                                    
                                                                                                    
                                                                                                    
                                                                                                    
                                                                                                    
                                                                                                    
                                                                                                    
                                                                                                    
                                                                                                    
                           
<?xpacket end="w"?></metadata>
<defs>
    <style>
      .cls-1 {
        fill: #002121;
      }

      .cls-2 {
        font-size: 48px;
        filter: url(#filter);
        text-anchor: middle;
        font-family: Roboto;
        font-weight: 500;
      }

      .cls-2, .cls-3 {
        fill: #fff;
      }

      .cls-3 {
        fill-rule: evenodd;
        filter: url(#filter-2);
      }
    </style>
    <filter id="filter" x="102" y="341" width="315" height="144" filterUnits="userSpaceOnUse">
      <feOffset result="offset" dx="10" dy="17.321" in="SourceAlpha"/>
      <feGaussianBlur result="blur" stdDeviation="4.472"/>
      <feFlood result="flood" flood-opacity="0.2"/>
      <feComposite result="composite" operator="in" in2="blur"/>
      <feBlend result="blend" in="SourceGraphic"/>
    </filter>
    <filter id="filter-2" x="141" y="88" width="238" height="238" filterUnits="userSpaceOnUse">
      <feOffset result="offset" dx="10" dy="17.321" in="SourceAlpha"/>
      <feGaussianBlur result="blur" stdDeviation="4.472"/>
      <feFlood result="flood" flood-opacity="0.2"/>
      <feComposite result="composite" operator="in" in2="blur"/>
      <feBlend result="blend" in="SourceGraphic"/>
    </filter>
  </defs>
  <rect class="cls-1" y="-3" width="500" height="503"/>
  <text id="App_Settings_Page" data-name="App Settings Page" class="cls-2" x="250.022" y="379.522">App Settings<tspan x="250.022" dy="57.6">Page</tspan></text>
  <path id="Forma_1" data-name="Forma 1" class="cls-3" d="M249.46,216.033a23.217,23.217,0,1,0-23.216-23.216A23.244,23.244,0,0,0,249.46,216.033Zm0-39.8a16.584,16.584,0,1,1-16.583,16.584A16.6,16.6,0,0,1,249.46,176.233Zm0,13.267a3.317,3.317,0,1,1-3.316,3.317A3.317,3.317,0,0,1,249.46,189.5ZM150,90V289H349V90H150Zm123.881,6.633a3.313,3.313,0,0,0-2.726,2.418l-2.657,9.914a83.448,83.448,0,0,0-15.681-2.209V96.633h21.064Zm-27.7,10.1a81.5,81.5,0,0,0-15.774,2.166l-2.64-9.851a3.322,3.322,0,0,0-2.719-2.418h21.133v10.1Zm-21.319-10.1a3.252,3.252,0,0,0-3.5,4.136l2.66,9.93a86.722,86.722,0,0,0-14.551,6.226l-5.23-9.061a3.316,3.316,0,0,0-5.744,3.316l5.27,9.124a90.055,90.055,0,0,0-12.494,9.632L183.8,122.46a3.316,3.316,0,0,0-4.69,4.69l7.473,7.472a88.932,88.932,0,0,0-9.748,12.431l-9-5.2A3.319,3.319,0,1,0,164.5,147.6l8.955,5.171a84.932,84.932,0,0,0-5.526,12.537,3.252,3.252,0,0,0-.487.866,3.087,3.087,0,0,0-.077.666c-0.819,2.5-1.542,5.048-2.119,7.645a3.316,3.316,0,0,0,6.474,1.443c0.338-1.519.786-3,1.214-4.484l43.953,14.281a3.316,3.316,0,1,0,2.049-6.308l-43.889-14.262c11.28-29.336,39.833-50.486,71.132-51.783V159.65a3.317,3.317,0,0,0,6.634,0V113.392c31.525,1.519,60.074,22.653,71.165,51.721l-44.005,14.3a3.316,3.316,0,1,0,2.05,6.308l44.045-14.311c0.434,1.529.879,3.055,1.217,4.62a3.317,3.317,0,0,0,3.24,2.62,3.371,3.371,0,0,0,.7-0.073,3.314,3.314,0,0,0,2.547-3.94,80.674,80.674,0,0,0-2.268-8.215c-0.02-.087,0-0.173-0.03-0.256a3.26,3.26,0,0,0-.176-0.312,83.118,83.118,0,0,0-5.734-13.147l8.852-5.111a3.316,3.316,0,1,0-3.317-5.744L322.188,147a87.794,87.794,0,0,0-9.794-12.421l7.426-7.426a3.316,3.316,0,1,0-4.69-4.689l-7.449,7.449a90.5,90.5,0,0,0-12.53-9.589l5.276-9.14a3.316,3.316,0,1,0-5.744-3.317l-5.254,9.1a87.971,87.971,0,0,0-14.547-6.195l2.68-9.993a3.316,3.316,0,0,0-2.345-4.063,3.214,3.214,0,0,0-1.2-.08h68.35V217.111a12.577,12.577,0,0,1-8.319-10l-1.688-10.978H311.85L309.4,208.876a12.7,12.7,0,0,1-19.592,8.113l-10.742-7.274-14.5,14.5,6.567,8.958a12.7,12.7,0,0,1-7.84,19.976l-10.474,2.017v20.51l10.978,1.691a12.5,12.5,0,0,1,8.242,5H226.963a12.531,12.531,0,0,1,8.245-5l10.979-1.691v-20.51l-10.471-2.014a12.695,12.695,0,0,1-7.841-19.976l6.571-8.958-14.5-14.5L209.2,216.992a12.7,12.7,0,0,1-19.591-8.113l-2.458-12.746H166.64l-1.688,10.978a12.571,12.571,0,0,1-8.319,10V96.633h68.231ZM160.321,282.367a23.407,23.407,0,0,1-3.688-4.637V253.837a23.2,23.2,0,1,1,36.109,28.53H160.321Zm40.955,0a29.767,29.767,0,0,0-44.643-38.732V224.046a19.19,19.19,0,0,0,14.872-15.926l0.826-5.353h9.34l1.416,7.359a19.331,19.331,0,0,0,29.827,12.355l6.209-4.206,6.6,6.6-3.2,4.365a19.335,19.335,0,0,0,11.936,30.42l5.088,0.982v9.34l-5.353.822a19.086,19.086,0,0,0-14.846,11.555H201.276v0ZM264.8,270.811l-5.353-.822v-9.34l5.091-.978a19.333,19.333,0,0,0,11.937-30.417l-3.2-4.368,6.6-6.6,6.206,4.206a19.333,19.333,0,0,0,29.827-12.355l1.419-7.366h9.34l0.826,5.353a19.194,19.194,0,0,0,14.872,15.926v19.589a29.768,29.768,0,0,0-44.646,38.732H279.648A19.071,19.071,0,0,0,264.8,270.811Zm41.455,11.556a23.2,23.2,0,1,1,36.109-28.534v23.9a23.021,23.021,0,0,1-3.688,4.633H306.258v0Z"/>
</svg>
