<svg id="icon" xmlns="http://www.w3.org/2000/svg" xmlns:xlink="http://www.w3.org/1999/xlink" width="500" height="500" viewBox="0 0 500 500">
  <metadata><?xpacket begin="﻿" id="W5M0MpCehiHzreSzNTczkc9d"?>
<x:xmpmeta xmlns:x="adobe:ns:meta/" x:xmptk="Adobe XMP Core 5.6-c138 79.159824, 2016/09/14-01:09:01        ">
   <rdf:RDF xmlns:rdf="http://www.w3.org/1999/02/22-rdf-syntax-ns#">
      <rdf:Description rdf:about=""/>
   </rdf:RDF>
</x:xmpmeta>
                                                                                                    
                                                                                                    
                                                                                                    
                                                                                                    
                                                                                                    
                                                                                                    
                                                                                                    
                                                                                                    
                                                                                                    
                                                                                                    
                                                                                                    
                                                                                                    
                                                                                                    
                                                                                                    
                                                                                                    
                                                                                                    
                                                                                                    
                                                                                                    
                                                                                                    
                                                                                                    
                           
<?xpacket end="w"?></metadata>
<defs>
    <style>
      .cls-1 {
        fill: #002121;
      }

      .cls-2 {
        font-size: 43px;
        filter: url(#filter);
        fill: #fff;
        text-anchor: middle;
        font-family: Roboto;
        font-weight: 500;
      }

      .cls-3 {
        fill: #fff3f3;
        fill-rule: evenodd;
        filter: url(#filter-2);
      }
    </style>
    <filter id="filter" x="137" y="343" width="248" height="134" filterUnits="userSpaceOnUse">
      <feOffset result="offset" dx="10" dy="17.321" in="SourceAlpha"/>
      <feGaussianBlur result="blur" stdDeviation="4.472"/>
      <feFlood result="flood" flood-opacity="0.2"/>
      <feComposite result="composite" operator="in" in2="blur"/>
      <feBlend result="blend" in="SourceGraphic"/>
    </filter>
    <filter id="filter-2" x="144" y="91" width="234" height="234" filterUnits="userSpaceOnUse">
      <feOffset result="offset" dx="10" dy="17.321" in="SourceAlpha"/>
      <feGaussianBlur result="blur" stdDeviation="4.472"/>
      <feFlood result="flood" flood-opacity="0.2"/>
      <feComposite result="composite" operator="in" in2="blur"/>
      <feBlend result="blend" in="SourceGraphic"/>
    </filter>
  </defs>
  <rect class="cls-1" y="-3" width="500" height="503"/>
  <text id="WordPress_Blog" data-name="WordPress Blog" class="cls-2" x="251.022" y="378.522">WordPress<tspan x="251.022" dy="51.6">Blog</tspan></text>
  <path id="Forma_1" data-name="Forma 1" class="cls-3" d="M164.015,143.057C180.278,112.788,212.891,93,250.5,93c24.345,0,46.588,10.351,63.671,24.963-4.881-.942-10.211.116-15.577,3.18-12.568,7.191-16.675,27.545-.381,37.768,10.176,6.345,13.8,22.233,13.453,31.935-0.334,9.72-23.651,54.351-23.651,54.351l-22.7-77.792s-0.783-5.457-.783-7.031a9.419,9.419,0,0,1,1.884-5.8c0.846-.924,2.137-2.863,3.662-2.863h10.759v-8.649h-58.5v8.649h1.814c1.916,0,3.789,2.57,5.6,4.417,2.137,2.2,4.826,10.482,8.082,19.072l8.507,27.961L228,245.43l-20.114-84.488s0.594-5.791,1.809-6.773c0.794-.677,2.011-2.463,3.419-2.463h0.553v-8.649H164.015Zm11.469,14.683s-4.733-6.034-9.755-6.034h-5.1C155.717,162.516,153,177.034,153,190.34c0,40.028,24.6,74.359,59.646,88.991ZM334.4,142.288c1.854,8.772,1.469,19.413-2.145,31.118-9.426,30.457-32.763,85.246-41.8,106.117A96.5,96.5,0,0,0,348,191.464,95.386,95.386,0,0,0,334.4,142.288ZM252.47,224.527l-24.928,60.76a98.521,98.521,0,0,0,46.7-.177Z"/>
</svg>
